<svg xmlns="http://www.w3.org/2000/svg" width="420" height="96" viewBox="0 0 420 96" role="img" aria-labelledby="title desc">
  <title id="title">GLL — Selo de integridade</title>
  <desc id="desc">Selo circular de certificação com marca de verificação dourada. Nome GLL e assinatura Gestão de Licitações.</desc>
  <path d="M53.00 13.00 L59.05 17.60 L66.39 15.66 L70.22 22.22 L77.75 23.25 L78.78 30.78 L85.34 34.61 L83.40 41.95 L88.00 48.00 L83.40 54.05 L85.34 61.39 L78.78 65.22 L77.75 72.75 L70.22 73.78 L66.39 80.34 L59.05 78.40 L53.00 83.00 L46.95 78.40 L39.61 80.34 L35.78 73.78 L28.25 72.75 L27.22 65.22 L20.66 61.39 L22.60 54.05 L18.00 48.00 L22.60 41.95 L20.66 34.61 L27.22 30.78 L28.25 23.25 L35.78 22.22 L39.61 15.66 L46.95 17.60Z" fill="none" stroke="#E8EEE8" stroke-width="3" stroke-linejoin="round"/>
  <circle cx="53" cy="48" r="23" fill="none" stroke="#9FB8AD" stroke-width="2"/>
  <path d="M41 49L50 58L66 40" fill="none" stroke="#C58D55" stroke-width="5" stroke-linecap="round" stroke-linejoin="round"/>
  <text x="108" y="48" font-family="Arial, Helvetica, sans-serif" font-size="37" font-weight="700" letter-spacing="1.2" fill="#F2F0E6">GLL</text>
  <path d="M110 57H165" stroke="#C58D55" stroke-width="2"/>
  <text x="109" y="76" font-family="Arial, Helvetica, sans-serif" font-size="14" font-weight="500" letter-spacing="2.05" fill="#C6D4CD">GESTÃO DE LICITAÇÕES</text>
</svg>
